# xmcd
#
# Track frame offsets: 
#        150
#        31714
#        65447
#        91768
#        116213
#        154466
#        172455
#        204864
#
# Disc length: 3006 seconds
#
# Revision: 0
# Processed by: cddbd v1.5.2PL0 Copyright (c) Steve Scherf et al.
# Submitted via: ExactAudioCopy v1.0b1
#
DISCID=690bbc08
DTITLE=Quatuor Talich - W.A.Mozart - Complete String Quartets CD4
DYEAR=2010
DGENRE=Classical
TTITLE0=Quartet No.15 In D Minor - Allegro Moderato
TTITLE1=Quartet No.15 In D Minor - Andante
TTITLE2=Quartet No.15 In D Minor - Menuetto, Allegretto
TTITLE3=Quartet No.15 In D Minor - Allegretto Ma Non Troppo - Piu Alle
TTITLE3=gro 
TTITLE4=Quartet No.16 In E Flat - Adagio
TTITLE5=Quartet No.16 In E Flat - Allegro
TTITLE6=Quartet No.16 In E Flat - Minuetto 
TTITLE7=Quartet No.16 In E Flat - Rondeau
EXTD=
EXTT0=
EXTT1=
EXTT2=
EXTT3=
EXTT4=
EXTT5=
EXTT6=
EXTT7=
PLAYORDER=
